<?xml version="1.0" encoding="UTF-8"?><svg id="a" xmlns="http://www.w3.org/2000/svg" viewBox="0 0 800.41 368.77"><defs><style>.b,.c{stroke-width:0px;}.c{fill:#fff;}</style></defs><path class="c" d="M48.68,215.3C21.07,211.33.5,187.74.5,159.59c0-18.22,8.88-35.39,23.76-45.94l.31-.22-.12-.35c-3.11-8.94-4.69-18.32-4.69-27.88C19.74,38.49,57.74.5,104.44.5s84.69,37.99,84.69,84.69c0,9.39-1.53,18.62-4.54,27.44l-.14.42.4.19c17.15,8.17,28.23,25.72,28.23,44.7,0,27.29-22.2,49.49-49.49,49.49-3.72,0-7.42-.41-11.01-1.23l47.92-43.14c2.51-2.26,2.72-6.15.46-8.66l-2.51-2.79c-1.16-1.29-2.82-2.02-4.56-2.02-1.52,0-2.98.56-4.1,1.57l-53.44,48.1c-5.24-3.46-9.72-7.82-13.33-12.98v-68.01c0-3.38-2.75-6.13-6.13-6.13h-6.57c-3.38,0-6.13,2.75-6.13,6.13v71.72c-7.76,12.06-19.62,20.62-33.44,24.13l-36.84-24.58c-1.01-.67-2.18-1.03-3.39-1.03-2.06,0-3.97,1.02-5.11,2.72l-.52.78c-1.87,2.81-1.11,6.63,1.7,8.51l22.11,14.75Z"/><path class="b" d="M104.44,1c46.42,0,84.19,37.77,84.19,84.19,0,9.34-1.52,18.51-4.52,27.28l-.29.84.8.38c16.97,8.09,27.94,25.46,27.94,44.25,0,27.01-21.98,48.99-48.99,48.99-3.36,0-6.69-.34-9.95-1.01l47.19-42.48c1.31-1.18,2.09-2.81,2.18-4.58.09-1.77-.51-3.47-1.69-4.79l-2.51-2.79c-1.25-1.39-3.05-2.19-4.93-2.19-1.64,0-3.22.6-4.43,1.7l-53.15,47.84c-5.01-3.36-9.3-7.56-12.78-12.5v-67.85c0-3.66-2.98-6.63-6.63-6.63h-6.57c-3.66,0-6.63,2.98-6.63,6.63v71.58c-7.65,11.83-19.29,20.24-32.85,23.74l-36.65-24.45c-1.09-.73-2.36-1.11-3.67-1.11-2.23,0-4.3,1.1-5.53,2.95l-.52.78c-2.03,3.04-1.2,7.17,1.84,9.2l20.18,13.46c-11.92-2.23-22.83-8.32-31.06-17.42-9.29-10.27-14.41-23.56-14.41-37.42,0-18.05,8.8-35.08,23.54-45.54l.61-.43-.25-.71c-3.1-8.89-4.67-18.21-4.67-27.72C20.24,38.77,58.01,1,104.44,1M104.44,0C57.39,0,19.24,38.14,19.24,85.19c0,9.82,1.66,19.26,4.72,28.05C9.46,123.53,0,140.45,0,159.59c0,29.32,22.21,53.44,50.72,56.47l-23.87-15.93c-2.58-1.72-3.28-5.24-1.56-7.82l.52-.78c1.08-1.62,2.88-2.5,4.7-2.5,1.07,0,2.16.31,3.11.94l37.02,24.7c14.24-3.56,26.34-12.49,34.03-24.52v-71.87c0-3.1,2.53-5.63,5.63-5.63h6.57c3.1,0,5.63,2.53,5.63,5.63v68.16c3.7,5.33,8.42,9.91,13.87,13.45l53.73-48.36c1.07-.97,2.42-1.44,3.77-1.44,1.54,0,3.08.63,4.19,1.86l2.51,2.79c2.07,2.3,1.89,5.88-.42,7.96l-48.63,43.77c3.86.96,7.89,1.46,12.05,1.46,27.61,0,49.99-22.38,49.99-49.99,0-19.92-11.65-37.12-28.51-45.15,2.96-8.66,4.57-17.94,4.57-27.6C189.63,38.14,151.49,0,104.44,0h0Z"/><path class="c" d="M110.3,367.96c-2.83,0-5.13-2.3-5.13-5.13v-111.04l-52.54-35.05c1.38.1,2.77.15,4.16.15,4.67,0,9.29-.56,13.75-1.67l34.63,23.1v-48.02c3.88-6.09,6.53-12.77,7.89-19.84.52-.05,1.04-.11,1.55-.17,1.46,5.84,3.95,11.33,7.4,16.32v26.91l14.42-12.99c4.36,2.79,9.09,4.87,14.07,6.2l-28.49,25.65v130.46c0,2.83-2.3,5.13-5.13,5.13h-6.57Z"/><path class="b" d="M114.24,170.83c1.48,5.69,3.92,11.05,7.27,15.92v27.88l1.67-1.5,13.31-11.99c4.06,2.55,8.42,4.5,13,5.81l-27.65,24.89-.33.3v130.68c0,2.55-2.08,4.63-4.63,4.63h-6.57c-2.55,0-4.63-2.08-4.63-4.63v-111.31l-.45-.3-50.79-33.88c.78.03,1.57.05,2.36.05,4.63,0,9.22-.55,13.65-1.63l33.67,22.46,1.55,1.04v-48.81c3.8-6.01,6.43-12.57,7.81-19.53.26-.03.51-.05.76-.08M114.99,169.74c-.78.1-1.57.18-2.36.26-1.35,7.31-4.1,14.12-7.97,20.16v47.23l-34.03-22.7c-4.43,1.12-9.07,1.7-13.84,1.7-2.05,0-4.08-.11-6.07-.32l53.95,35.99v110.78c0,3.1,2.53,5.63,5.63,5.63h6.57c3.1,0,5.63-2.53,5.63-5.63v-130.23l29.02-26.13c-5.46-1.35-10.56-3.6-15.15-6.58l-13.87,12.49v-25.94c-3.47-4.98-6.05-10.63-7.51-16.71h0Z"/><path class="c" d="M273.43,59.04h-70.56v-25.47h171.76v25.47h-70.91v206.52h-30.29V59.04Z"/><path class="c" d="M383.92,150.94c0-19.62-.34-36.49-1.38-51.98h26.5l1.03,32.7h1.38c7.57-22.37,25.82-36.49,46.12-36.49,3.44,0,5.85.34,8.6,1.03v28.57c-3.1-.69-6.2-1.03-10.33-1.03-21.34,0-36.49,16.18-40.62,38.9-.69,4.13-1.38,8.95-1.38,14.11v88.81h-29.95v-114.62Z"/><path class="c" d="M509.9,187.77c.69,40.96,26.85,57.83,57.14,57.83,21.69,0,34.76-3.79,46.12-8.61l5.16,21.69c-10.67,4.82-28.91,10.33-55.42,10.33-51.29,0-81.92-33.73-81.92-83.99s29.6-89.84,78.13-89.84c54.38,0,68.84,47.84,68.84,78.48,0,6.2-.69,11.01-1.03,14.11h-117.03ZM598.71,166.09c.34-19.28-7.92-49.22-41.99-49.22-30.63,0-44.06,28.23-46.47,49.22h88.46Z"/><path class="c" d="M682.35,187.77c.69,40.96,26.85,57.83,57.14,57.83,21.69,0,34.76-3.79,46.12-8.61l5.16,21.69c-10.67,4.82-28.91,10.33-55.42,10.33-51.29,0-81.92-33.73-81.92-83.99s29.6-89.84,78.13-89.84c54.38,0,68.84,47.84,68.84,78.48,0,6.2-.69,11.01-1.03,14.11h-117.03ZM771.15,166.09c.34-19.28-7.92-49.22-41.99-49.22-30.63,0-44.06,28.23-46.47,49.22h88.46Z"/><path class="c" d="M273.57,282.19c4.1-.68,9.47-1.27,16.3-1.27,8.39,0,14.54,1.95,18.45,5.47,3.61,3.12,5.76,7.91,5.76,13.76s-1.76,10.64-5.08,14.06c-4.49,4.78-11.81,7.22-20.11,7.22-2.54,0-4.88-.1-6.83-.58v26.35h-8.49v-65.01ZM282.06,313.91c1.85.49,4.2.68,7.03.68,10.25,0,16.5-4.98,16.5-14.06s-6.15-12.88-15.52-12.88c-3.71,0-6.54.29-8,.68v25.57Z"/><path class="c" d="M324.72,277.9h8.59v29.48h.2c1.37-2.44,3.51-4.59,6.15-6.05,2.54-1.46,5.56-2.44,8.78-2.44,6.34,0,16.5,3.9,16.5,20.21v28.11h-8.59v-27.14c0-7.61-2.83-14.06-10.93-14.06-5.56,0-9.96,3.9-11.52,8.59-.49,1.17-.59,2.44-.59,4.1v28.5h-8.59v-69.3Z"/><path class="c" d="M421.65,323.19c0,17.47-12.1,25.08-23.52,25.08-12.79,0-22.65-9.37-22.65-24.3,0-15.81,10.35-25.09,23.43-25.09s22.74,9.86,22.74,24.31ZM384.17,323.68c0,10.35,5.95,18.16,14.35,18.16s14.35-7.71,14.35-18.35c0-8-4-18.16-14.15-18.16s-14.54,9.37-14.54,18.35Z"/><path class="c" d="M442.83,286.39v13.57h12.3v6.54h-12.3v25.48c0,5.86,1.66,9.18,6.44,9.18,2.25,0,3.9-.29,4.98-.59l.39,6.44c-1.66.68-4.29,1.17-7.61,1.17-4,0-7.22-1.27-9.27-3.61-2.44-2.54-3.32-6.74-3.32-12.3v-25.77h-7.32v-6.54h7.32v-11.32l8.39-2.25Z"/><path class="c" d="M506.97,323.19c0,17.47-12.1,25.08-23.52,25.08-12.79,0-22.65-9.37-22.65-24.3,0-15.81,10.35-25.09,23.43-25.09s22.74,9.86,22.74,24.31ZM469.48,323.68c0,10.35,5.95,18.16,14.35,18.16s14.35-7.71,14.35-18.35c0-8-4-18.16-14.15-18.16s-14.54,9.37-14.54,18.35Z"/><path class="c" d="M558.51,299.96c-.2,3.42-.39,7.22-.39,12.98v27.43c0,10.83-2.15,17.47-6.74,21.57-4.59,4.29-11.22,5.66-17.18,5.66s-11.91-1.37-15.72-3.9l2.15-6.54c3.12,1.95,8,3.71,13.86,3.71,8.78,0,15.23-4.59,15.23-16.5v-5.27h-.2c-2.63,4.39-7.71,7.91-15.03,7.91-11.71,0-20.11-9.96-20.11-23.04,0-16.01,10.44-25.09,21.28-25.09,8.2,0,12.69,4.29,14.74,8.2h.2l.39-7.12h7.52ZM549.62,318.6c0-1.46-.1-2.73-.49-3.9-1.56-4.98-5.76-9.08-12.01-9.08-8.2,0-14.06,6.93-14.06,17.86,0,9.27,4.69,16.98,13.96,16.98,5.27,0,10.05-3.32,11.91-8.79.49-1.46.68-3.12.68-4.59v-8.49Z"/><path class="c" d="M571.78,314.7c0-5.56-.1-10.35-.39-14.74h7.52l.29,9.27h.39c2.15-6.34,7.32-10.35,13.08-10.35.98,0,1.66.1,2.44.29v8.1c-.88-.2-1.76-.29-2.93-.29-6.05,0-10.35,4.59-11.52,11.03-.2,1.17-.39,2.54-.39,4v25.18h-8.49v-32.5Z"/><path class="c" d="M629.37,347.2l-.68-5.95h-.29c-2.63,3.71-7.71,7.03-14.45,7.03-9.57,0-14.45-6.73-14.45-13.57,0-11.42,10.15-17.67,28.41-17.57v-.98c0-3.9-1.07-10.93-10.74-10.93-4.39,0-8.98,1.37-12.3,3.51l-1.95-5.66c3.9-2.54,9.57-4.2,15.52-4.2,14.45,0,17.96,9.86,17.96,19.33v17.67c0,4.1.2,8.1.78,11.32h-7.81ZM628.11,323.09c-9.37-.2-20.01,1.46-20.01,10.64,0,5.56,3.71,8.2,8.1,8.2,6.15,0,10.05-3.91,11.42-7.91.29-.88.49-1.85.49-2.73v-8.2Z"/><path class="c" d="M650.27,315.38c0-6.05-.2-10.93-.39-15.42h7.71l.39,8.1h.2c3.51-5.76,9.08-9.18,16.79-9.18,11.42,0,20.01,9.66,20.01,24.01,0,16.98-10.35,25.38-21.47,25.38-6.25,0-11.71-2.73-14.54-7.42h-.19v25.67h-8.49v-51.15ZM658.76,327.97c0,1.27.19,2.44.39,3.51,1.56,5.95,6.74,10.05,12.88,10.05,9.08,0,14.35-7.42,14.35-18.25,0-9.47-4.98-17.57-14.06-17.57-5.86,0-11.32,4.2-12.98,10.64-.29,1.07-.58,2.34-.58,3.51v8.1Z"/><path class="c" d="M705.81,277.9h8.59v29.48h.2c1.37-2.44,3.51-4.59,6.15-6.05,2.54-1.46,5.56-2.44,8.79-2.44,6.34,0,16.5,3.9,16.5,20.21v28.11h-8.59v-27.14c0-7.61-2.83-14.06-10.93-14.06-5.56,0-9.96,3.9-11.52,8.59-.49,1.17-.59,2.44-.59,4.1v28.5h-8.59v-69.3Z"/><path class="c" d="M761.84,299.96l10.35,27.92c1.07,3.12,2.25,6.83,3.03,9.66h.2c.88-2.83,1.85-6.44,3.03-9.86l9.37-27.72h9.08l-12.88,33.68c-6.15,16.2-10.35,24.5-16.2,29.58-4.2,3.71-8.39,5.17-10.54,5.56l-2.15-7.22c2.15-.68,4.98-2.05,7.52-4.2,2.34-1.85,5.27-5.17,7.22-9.57.39-.88.68-1.56.68-2.05s-.2-1.17-.59-2.25l-17.47-43.53h9.37Z"/></svg>